Patient4_TMGait_0pt7_01_right_13_GRF.mot
version=1
nRows=39
nColumns=19
inDegrees=no
endheader
time	F1x	F1y	F1z	M1x	M1y	M1z	F2x	F2y	F2z	M2x	M2y	M2z	EC1x	EC1y	EC1z	EC2x	EC2y	EC2z
14.38	15.6107	778.7655	71.5344	-262.6247	-69.8193	828.5434	-7.7984	0.88812	2.8424	-0.35121	2.0324	6.3681	-0.0592	0.0182	-0.0073	-0.0462	0.0165	0.9585
14.3911	9.1619	774.338	70.5847	-260.8337	-69.7836	817.6207	-5.21	1.425	2.1073	0.033946	1.3156	5.186	-0.0592	0.0182	-0.0073	-0.0462	0.0165	0.9585
14.4023	4.0414	768.2579	69.4771	-258.4443	-69.1697	805.1398	-3.0966	1.8932	1.3855	0.39487	0.7807	4.2303	-0.0592	0.0182	-0.0073	-0.0462	0.0165	0.9585
14.4134	0.50681	760.8595	68.2427	-255.5774	-67.9894	791.7612	-1.5375	2.2608	0.77355	0.69667	0.41857	3.529	-0.0592	0.0182	-0.0073	-0.0462	0.0165	0.9585
14.4246	-1.546	752.691	66.9779	-252.4247	-66.3998	778.1665	-0.51181	2.5727	0.29466	0.93731	0.21887	3.1357	-0.0592	0.0182	-0.0073	-0.0462	0.0165	0.9585
14.4357	-2.3724	744.4297	65.7247	-249.2263	-64.5384	765.0207	0.077505	2.8009	-0.037969	1.1087	0.12659	2.9545	-0.0592	0.0182	-0.0073	-0.0462	0.0165	0.9585
14.4469	-2.2637	736.7612	64.5789	-246.2246	-62.5905	752.8921	0.31805	2.9633	-0.25313	1.216	0.12057	2.946	-0.0592	0.0182	-0.0073	-0.0462	0.0165	0.9585
14.458	-1.4409	730.3147	63.5884	-243.6455	-60.6736	742.2689	0.33244	2.9874	-0.37835	1.2439	0.16665	2.9368	-0.0592	0.0182	-0.0073	-0.0462	0.0165	0.9585
14.4691	-0.060152	725.5962	62.8461	-241.6702	-58.9187	733.4955	0.18064	2.8202	-0.44762	1.1754	0.25958	2.8084	-0.0592	0.0182	-0.0073	-0.0462	0.0165	0.9585
14.4803	1.7623	722.8708	62.4136	-240.3985	-57.4106	726.6992	-0.042062	2.3557	-0.49129	0.97713	0.38717	2.3699	-0.0592	0.0182	-0.0073	-0.0462	0.0165	0.9585
14.4914	3.9865	722.2045	62.3205	-239.8527	-56.1758	721.8424	-0.30955	1.4969	-0.52823	0.61431	0.54699	1.4804	-0.0592	0.0182	-0.0073	-0.0462	0.0165	0.9585
14.5026	6.5696	723.4179	62.573	-239.9641	-55.2185	718.6991	-0.53845	0.12843	-0.57312	0.04935	0.72017	-0.036246	-0.0592	0.0182	-0.0073	-0.0462	0.0165	0.9585
14.5137	9.5124	726.1645	63.1333	-240.5987	-54.4812	716.8986	-0.70625	-1.8063	-0.62506	-0.73667	0.88079	-2.2408	-0.0592	0.0182	-0.0073	-0.0462	0.0165	0.9585
14.5249	12.8107	729.9431	63.9725	-241.5603	-53.915	715.9594	-0.71589	-4.3025	-0.6732	-1.735	0.9692	-5.1334	-0.0592	0.0182	-0.0073	-0.0462	0.0165	0.9585
14.536	16.4174	734.1302	65.0391	-242.6068	-53.4628	715.3163	-0.50715	-7.1608	-0.68141	-2.8645	0.90339	-8.4679	-0.0592	0.0182	-0.0073	-0.0462	0.0165	0.9585
14.5471	20.2624	738.1132	66.2966	-243.4964	-53.0951	714.4659	0.051291	-9.9587	-0.60131	-3.9517	0.57449	-11.761	-0.0592	0.0182	-0.0073	-0.0462	0.0165	0.9585
14.5583	24.2263	741.3536	67.7202	-244.0188	-52.8154	712.9887	1.0627	-11.8891	-0.35837	-4.6756	-0.1489	-14.0598	-0.0592	0.0182	-0.0073	-0.0462	0.0165	0.9585
14.5694	28.1474	743.567	69.261	-244.0534	-52.6255	710.7211	2.663	-11.7013	0.1322	-4.5379	-1.4095	-13.899	-0.0592	0.0182	-0.0073	-0.0462	0.0165	0.9585
14.5806	31.8974	744.6684	70.8541	-243.5617	-52.517	707.6885	4.8953	-7.6279	0.96639	-2.8365	-3.3263	-9.1879	-0.0592	0.0182	-0.0073	-0.0462	0.0165	0.9585
14.5917	35.3629	744.6582	72.3692	-242.5501	-52.4178	703.9696	7.7505	2.6001	2.2162	1.3258	-5.9504	2.7444	-0.0592	0.0182	-0.0073	-0.0462	0.0165	0.9585
14.6029	38.5569	743.3706	73.6538	-240.9893	-52.2039	699.4383	10.9858	21.5598	3.912	8.9657	-9.1966	24.9497	-0.0592	0.0182	-0.0073	-0.0462	0.0165	0.9585
14.614	41.5122	740.3274	74.5318	-238.7686	-51.7192	693.6513	14.105	51.7941	5.9853	21.0701	-12.7532	60.4409	-0.0592	0.0182	-0.0073	-0.0462	0.0165	0.9585
14.6251	44.3082	734.6571	74.7616	-235.676	-50.7378	685.7517	16.1644	95.0332	8.2208	38.2962	-15.9641	111.298	-0.0592	0.0182	-0.0073	-0.0462	0.0165	0.9585
14.6363	46.9783	725.1131	74.0655	-231.3959	-49.016	674.5561	15.7491	151.1145	10.1331	60.5331	-17.6751	177.3746	-0.0592	0.0182	-0.0073	-0.0462	0.0165	0.9585
14.6474	49.4989	710.1558	72.1225	-225.5288	-46.2922	658.5935	11.1301	216.6424	10.9516	86.3734	-16.3063	254.7346	-0.0592	0.0182	-0.0073	-0.0462	0.0165	0.9585
14.6586	51.7355	688.1597	68.6861	-217.6377	-42.4076	636.362	1.3865	284.0408	9.6822	112.7568	-10.3877	334.4945	-0.0592	0.0182	-0.0073	-0.0462	0.0165	0.9585
14.6697	53.4956	657.7234	63.6848	-207.3361	-37.3752	606.5764	-11.3769	343.9714	5.2415	135.9643	0.33723	405.5769	-0.0592	0.0182	-0.0073	-0.0462	0.0165	0.9585
14.6809	54.506	618.2309	57.3216	-194.4399	-31.4639	568.7068	-24.0473	390.8057	-1.7378	153.7852	13.8577	461.0337	-0.0592	0.0182	-0.0073	-0.0462	0.0165	0.9585
14.692	54.5255	570.0077	50.0822	-179.0206	-25.1642	523.1071	-34.6001	424.0549	-10.2447	166.0496	28.1966	499.9941	-0.0592	0.0182	-0.0073	-0.0462	0.0165	0.9585
14.7031	53.4069	514.2172	42.595	-161.3859	-19.0557	470.8829	-42.0162	446.6855	-19.3973	173.9789	41.8829	525.802	-0.0592	0.0182	-0.0073	-0.0462	0.0165	0.9585
14.7143	51.0115	452.6628	35.3409	-142.0417	-13.58	413.7193	-46.0918	463.0657	-27.9704	179.3575	53.487	543.5634	-0.0592	0.0182	-0.0073	-0.0462	0.0165	0.9585
14.7254	47.2817	387.6361	28.623	-121.6568	-9.013	353.6989	-47.4468	477.1358	-35.6035	183.8006	62.7697	558.0229	-0.0592	0.0182	-0.0073	-0.0462	0.0165	0.9585
14.7366	42.1992	321.8199	22.5657	-101.0348	-5.463	293.2715	-46.7796	492.0885	-41.612	188.6213	69.3062	572.8806	-0.0592	0.0182	-0.0073	-0.0462	0.0165	0.9585
14.7477	35.9876	258.0396	17.2035	-81.0436	-2.8933	234.956	-44.8024	510.1389	-46.2238	194.7106	73.6112	590.7319	-0.0592	0.0182	-0.0073	-0.0462	0.0165	0.9585
14.7589	29.0516	199.0693	12.5759	-62.5422	-1.2062	181.2384	-42.0201	532.8184	-49.6077	202.6613	76.1271	613.335	-0.0592	0.0182	-0.0073	-0.0462	0.0165	0.9585
14.77	22.0328	147.063	8.6989	-46.2138	-0.20327	133.9716	-38.7955	560.4144	-52.3152	212.551	77.6286	641.0313	-0.0592	0.0182	-0.0073	-0.0462	0.0165	0.9585
14.7811	15.5011	103.3759	5.5973	-32.4886	0.28908	94.3365	-35.5189	591.773	-54.9022	223.9097	78.8828	672.5904	-0.0592	0.0182	-0.0073	-0.0462	0.0165	0.9585
14.7923	9.8785	68.3273	3.2209	-21.4817	0.45863	62.5487	-32.4471	624.9487	-57.606	235.9729	80.2862	705.8373	-0.0592	0.0182	-0.0073	-0.0462	0.0165	0.9585
14.8034	5.3188	41.5786	1.5452	-13.0862	0.38249	38.2972	-29.8118	657.9197	-60.6354	247.9648	82.1472	738.5694	-0.0592	0.0182	-0.0073	-0.0462	0.0165	0.9585
